<svg id="Capa_1" data-name="Capa 1" xmlns="http://www.w3.org/2000/svg" viewBox="0 0 653.5 279.34"><defs><style>.cls-1{fill:#fff;}</style></defs><title>4dx</title><path class="cls-1" d="M84.9,326.84h22L96.61,338.92V375H206.77v32.15h41.67V326.84H229V226.33H171.22Zm67.15,0H132.82l54.6-62.78v62.78h19.35V339H141.49Z" transform="translate(-84.9 -161.6)"/><path class="cls-1" d="M439.34,299.49H416.71c-.36-20.26-7.94-37.61-22.8-51.75q-22.31-21.47-53.75-21.41H270.52v73.16h22.63V375h69.58q31.84,0,54.17-21.6c14.92-14.49,22.44-32.09,22.44-52.65Zm-43.07,0v1q0,16-8.92,27.29c-5.88,7.47-13,11.29-21.35,11.29H336.46V299.49H313.83V262.12h29.48c8.25,0,15.23,3.7,21.11,10.92s9,16,9.1,26.45Z" transform="translate(-84.9 -161.6)"/><path class="cls-1" d="M629.63,342.68,620,332.73H467.55L458,342.68Z" transform="translate(-84.9 -161.6)"/><path class="cls-1" d="M634.73,326.78l-26.15-27.29H514.14l-26.21,27.29Z" transform="translate(-84.9 -161.6)"/><path class="cls-1" d="M633.76,293.48l16.86-17.71h-141l17,17.71Z" transform="translate(-84.9 -161.6)"/><path class="cls-1" d="M539.92,269.82l-41.44-43.43H422.72l41.49,43.43Z" transform="translate(-84.9 -161.6)"/><path class="cls-1" d="M652.62,226.39H583.41l-41.49,43.43h69.21Z" transform="translate(-84.9 -161.6)"/><path class="cls-1" d="M526.93,220.57l-28.26-29.36H422.78l28.39,29.36Z" transform="translate(-84.9 -161.6)"/><path class="cls-1" d="M606.58,220.57h75.77l56-59H662.69Z" transform="translate(-84.9 -161.6)"/><path class="cls-1" d="M608.16,375.19h75.76l-25.29-26.51H583Z" transform="translate(-84.9 -161.6)"/><path class="cls-1" d="M389.78,441h79.1l58.54-61H448Z" transform="translate(-84.9 -161.6)"/><path class="cls-1" d="M576.25,348.68H496.36l-25.42,26.51h79.89Z" transform="translate(-84.9 -161.6)"/><path class="cls-1" d="M592.08,379.92l26,27.24h75.76l-26-27.24Z" transform="translate(-84.9 -161.6)"/></svg>