<svg id="Layer_1" data-name="Layer 1" xmlns="http://www.w3.org/2000/svg" viewBox="0 0 1709.55 376.03"><defs><style>.cls-1,.cls-2{fill:#fff;}.cls-1{fill-rule:evenodd;}</style></defs><title>imax-2-logo</title><path class="cls-1" d="M1394.55,352H1216.23l-71.71,93L1067,352H884.79L1063.1,545.84,977.82,648.56,737.48,352H698.71L487.45,640.8V352H353.7L198.64,545.84,49.39,352H-84.35V728H49.39V536.14L200.57,728,355.64,534.2,353.7,728H613.42l37.7-81.41H805.31L851.84,728h209.33l85.28-95,83.34,95h149.26L1225.92,542Zm0,0" transform="translate(315 -352)"/><path class="cls-1" d="M672.64,600.09,722,493.49l60.07,106.6Zm0,0" transform="translate(315 -352)"/><rect class="cls-2" width="133.74" height="376.03"/></svg>